<svg xmlns="http://www.w3.org/2000/svg" xmlns:xlink="http://www.w3.org/1999/xlink" width="14.969" height="10.69" viewBox="0 0 14.969 10.69">
  <defs>
    <style>
      .cls-1 {
        fill: #fff;
        fill-opacity: 0;
        fill-rule: evenodd;
        filter: url(#filter);
      }
    </style>
    <filter id="filter" x="616" y="2974.03" width="14.969" height="10.69" filterUnits="userSpaceOnUse">
      <feFlood result="flood" flood-color="#dcdcdc"/>
      <feComposite result="composite" operator="in" in2="SourceGraphic"/>
      <feBlend result="blend" in2="SourceGraphic"/>
    </filter>
  </defs>
  <path id="t.svg" class="cls-1" d="M625.363,2974.17a2.727,2.727,0,0,0-2.106,2.71l0.032,0.46-0.54-.05a9.363,9.363,0,0,1-5.14-2.19l-0.713-.61-0.183.45a2.457,2.457,0,0,0,.669,2.79c0.432,0.39.335,0.45-.41,0.22a1.372,1.372,0,0,0-.508-0.11,2.968,2.968,0,0,0,.389,1.26,3.255,3.255,0,0,0,1.48,1.21l0.529,0.22-0.626.01c-0.605,0-.626,0-0.561.2a3.109,3.109,0,0,0,2.019,1.55l0.669,0.2-0.583.3a6.734,6.734,0,0,1-2.894.69,3.47,3.47,0,0,0-.886.08,9.168,9.168,0,0,0,2.084.83,10.389,10.389,0,0,0,7.084-.7,7.784,7.784,0,0,0,4.331-6.48,1.058,1.058,0,0,1,.637-1.01,7,7,0,0,0,.756-0.72c0.108-.18.1-0.18-0.454-0.02-0.917.28-1.047,0.24-.593-0.18a2.708,2.708,0,0,0,.734-1.01,0.622,0.622,0,0,0-.346.11,8.011,8.011,0,0,1-.95.32l-0.583.16-0.529-.31a4.943,4.943,0,0,0-.918-0.42A4.289,4.289,0,0,0,625.363,2974.17Z" transform="translate(-616 -2974.03)"/>
</svg>
