<svg xmlns="http://www.w3.org/2000/svg" xmlns:xlink="http://www.w3.org/1999/xlink" width="9.25" height="6.6" viewBox="0 0 9.25 6.6">
  <metadata><?xpacket begin="﻿" id="W5M0MpCehiHzreSzNTczkc9d"?>
<x:xmpmeta xmlns:x="adobe:ns:meta/" x:xmptk="Adobe XMP Core 5.6-c138 79.159824, 2016/09/14-01:09:01        ">
   <rdf:RDF xmlns:rdf="http://www.w3.org/1999/02/22-rdf-syntax-ns#">
      <rdf:Description rdf:about=""/>
   </rdf:RDF>
</x:xmpmeta>
                                                                                                    
                                                                                                    
                                                                                                    
                                                                                                    
                                                                                                    
                                                                                                    
                                                                                                    
                                                                                                    
                                                                                                    
                                                                                                    
                                                                                                    
                                                                                                    
                                                                                                    
                                                                                                    
                                                                                                    
                                                                                                    
                                                                                                    
                                                                                                    
                                                                                                    
                                                                                                    
                           
<?xpacket end="w"?></metadata>
<defs>
    <style>
      .cls-1 {
        fill: #fff;
        fill-opacity: 0;
        fill-rule: evenodd;
        filter: url(#filter);
      }
    </style>
    <filter id="filter" x="381.531" y="1841.59" width="9.25" height="6.6" filterUnits="userSpaceOnUse">
      <feFlood result="flood" flood-color="#dcdcdc"/>
      <feComposite result="composite" operator="in" in2="SourceGraphic"/>
      <feBlend result="blend" in2="SourceGraphic"/>
    </filter>
  </defs>
  <path id="Shape_16_copy_3" data-name="Shape 16 copy 3" class="cls-1" d="M387.321,1841.66a1.688,1.688,0,0,0-1.3,1.68l0.02,0.29-0.334-.04a5.806,5.806,0,0,1-3.184-1.35l-0.441-.38-0.114.28a1.508,1.508,0,0,0,.415,1.72c0.267,0.25.207,0.28-.254,0.14a1.135,1.135,0,0,0-.315-0.07,1.873,1.873,0,0,0,.241.79,2.065,2.065,0,0,0,.916.74l0.328,0.14h-0.388c-0.374,0-.388.01-0.347,0.13a1.959,1.959,0,0,0,1.25.96l0.415,0.12-0.361.19a4.176,4.176,0,0,1-1.793.43,2.637,2.637,0,0,0-.548.04,5.4,5.4,0,0,0,1.29.52,6.483,6.483,0,0,0,4.388-.43,5.345,5.345,0,0,0,2.227-2.27,5.267,5.267,0,0,0,.455-1.75,0.645,0.645,0,0,1,.4-0.62,4.146,4.146,0,0,0,.468-0.45c0.067-.11.06-0.11-0.281-0.01-0.568.17-.649,0.15-0.368-0.11a1.71,1.71,0,0,0,.455-0.63,0.649,0.649,0,0,0-.214.07,4.915,4.915,0,0,1-.589.2l-0.361.1-0.327-.2a2.837,2.837,0,0,0-.569-0.25A2.712,2.712,0,0,0,387.321,1841.66Z" transform="translate(-381.531 -1841.59)"/>
</svg>
