<?xml version="1.0" encoding="iso-8859-1"?><!DOCTYPE svg PUBLIC "-//W3C//DTD SVG 1.1//EN" "http://www.w3.org/Graphics/SVG/1.1/DTD/svg11.dtd"><svg xmlns="http://www.w3.org/2000/svg" xmlns:xlink="http://www.w3.org/1999/xlink">

<symbol viewBox="0 0 448 448" id="arrow" xmlns="http://www.w3.org/2000/svg"><path d="M41.373 278.627l160 160c12.496 12.497 32.758 12.497 45.255 0l160-160c12.495-12.497 12.495-32.758 0-45.255-12.497-12.497-32.759-12.497-45.256 0L256 338.745V32c0-17.673-14.327-32-32-32-17.673 0-32 14.327-32 32v306.745L86.627 233.372C80.379 227.124 72.189 224 64 224s-16.379 3.124-22.627 9.372c-12.497 12.497-12.497 32.758 0 45.255z"/></symbol>

<symbol viewBox="0 0 401.998 401.998" id="i" xmlns="http://www.w3.org/2000/svg"><path d="M164.454 91.363h73.098c4.945 0 9.226-1.807 12.847-5.424 3.61-3.614 5.421-7.898 5.421-12.847V18.274c0-4.948-1.811-9.229-5.428-12.85C246.777 1.812 242.49 0 237.544 0h-73.091c-4.946 0-9.229 1.812-12.847 5.424-3.615 3.617-5.424 7.902-5.424 12.85v54.818c0 4.949 1.809 9.233 5.424 12.847 3.618 3.617 7.901 5.424 12.848 5.424zM286.936 334.331c-3.613-3.617-7.897-5.427-12.847-5.427h-18.274V164.452c0-4.947-1.807-9.229-5.421-12.845-3.62-3.617-7.904-5.426-12.847-5.426H127.912c-4.949 0-9.231 1.809-12.847 5.426-3.618 3.616-5.424 7.898-5.424 12.845v36.547c0 4.946 1.807 9.231 5.424 12.845 3.615 3.621 7.898 5.428 12.847 5.428h18.274v109.633h-18.274c-4.949 0-9.231 1.81-12.847 5.427-3.618 3.614-5.424 7.898-5.424 12.847v36.546c0 4.948 1.807 9.232 5.424 12.854 3.615 3.61 7.898 5.421 12.847 5.421h146.177c4.949 0 9.233-1.811 12.847-5.421 3.614-3.621 5.421-7.905 5.421-12.854v-36.546c0-4.95-1.797-9.234-5.421-12.848z"/></symbol>

<symbol viewBox="0 0 463 463" id="court" xmlns="http://www.w3.org/2000/svg"><path d="M423 219.5V211h16.5a7.5 7.5 0 0 0 7.5-7.5V179h8.5a7.5 7.5 0 0 0 7.5-7.5v-24a7.5 7.5 0 0 0-3.779-6.512l-224-128a7.503 7.503 0 0 0-7.442 0l-224 128A7.499 7.499 0 0 0 0 147.5v24a7.5 7.5 0 0 0 7.5 7.5H16v24.5a7.5 7.5 0 0 0 7.5 7.5H40v8.5c0 5.827 3.235 10.908 8 13.555V372H23.5a7.5 7.5 0 0 0-7.5 7.5V404H7.5a7.5 7.5 0 0 0-7.5 7.5v32a7.5 7.5 0 0 0 7.5 7.5h448a7.5 7.5 0 0 0 7.5-7.5v-32a7.5 7.5 0 0 0-7.5-7.5H447v-24.5a7.5 7.5 0 0 0-7.5-7.5H415V233.055c4.765-2.647 8-7.728 8-13.555zm-15 0a.5.5 0 0 1-.5.5h-32a.5.5 0 0 1-.5-.5V211h33v8.5zM335 372V233.055c4.765-2.647 8-7.728 8-13.555V211h17v8.5c0 5.827 3.235 10.908 8 13.555V372h-33zm-32 0V235h17v137h-17zm-48 0V233.055c4.765-2.647 8-7.728 8-13.555V211h17v8.5c0 5.827 3.235 10.908 8 13.555V372h-33zm-32 0V235h17v137h-17zm-48 0V233.055c4.765-2.647 8-7.728 8-13.555V211h17v8.5c0 5.827 3.235 10.908 8 13.555V372h-33zm-32 0V235h17v137h-17zm-48 0V233.055c4.765-2.647 8-7.728 8-13.555V211h17v8.5c0 5.827 3.235 10.908 8 13.555V372H95zm73-161v8.5a.5.5 0 0 1-.5.5h-32a.5.5 0 0 1-.5-.5V211h33zm80 0v8.5a.5.5 0 0 1-.5.5h-32a.5.5 0 0 1-.5-.5V211h33zm80 0v8.5a.5.5 0 0 1-.5.5h-32a.5.5 0 0 1-.5-.5V211h33zM15 151.852L231.5 28.138 448 151.852V164H15v-12.148zM31 179h401v17H31v-17zm57 32v8.5a.5.5 0 0 1-.5.5h-32a.5.5 0 0 1-.5-.5V211h33zm-25 24h17v137H63V235zm385 201H15v-17h433v17zm-16-32H31v-17h401v17zm-49-32V235h17v137h-17z"/></symbol>

<symbol viewBox="0 0 512 512" id="documents" xmlns="http://www.w3.org/2000/svg"><path d="M196.571 73.143H77.714c-5.047 0-9.143 4.096-9.143 9.143v420.571c0 5.047 4.096 9.143 9.143 9.143h118.857c5.047 0 9.143-4.096 9.143-9.143V82.286c0-5.047-4.096-9.143-9.143-9.143zm-9.142 420.571H86.857V91.429h100.571v402.285z"/><path d="M196.571 173.714H77.714c-5.047 0-9.143 4.096-9.143 9.143 0 5.047 4.096 9.143 9.143 9.143h118.857c5.047 0 9.143-4.096 9.143-9.143 0-5.047-4.096-9.143-9.143-9.143zM196.571 201.143H77.714c-5.047 0-9.143 4.096-9.143 9.143 0 5.047 4.096 9.143 9.143 9.143h118.857c5.047 0 9.143-4.096 9.143-9.143 0-5.047-4.096-9.143-9.143-9.143zM196.571 228.571H77.714c-5.047 0-9.143 4.096-9.143 9.143s4.096 9.143 9.143 9.143h118.857c5.047 0 9.143-4.096 9.143-9.143s-4.096-9.143-9.143-9.143zM137.143 365.714C114.46 365.714 96 384.169 96 406.857S114.459 448 137.143 448c22.683 0 41.143-18.455 41.143-41.143s-18.46-41.143-41.143-41.143zm0 64c-12.603 0-22.857-10.254-22.857-22.857S124.539 384 137.143 384C149.746 384 160 394.254 160 406.857s-10.254 22.857-22.857 22.857z"/><path d="M315.429 0H196.571c-5.047 0-9.143 4.096-9.143 9.143v420.571c0 5.047 4.096 9.143 9.143 9.143h118.857c5.047 0 9.143-4.096 9.143-9.143V9.143c0-5.047-4.096-9.143-9.142-9.143zm-9.143 420.571H205.714V18.286h100.571v402.285z"/><path d="M315.429 100.571H196.571c-5.047 0-9.143 4.096-9.143 9.143s4.096 9.143 9.143 9.143h118.857c5.047 0 9.143-4.096 9.143-9.143s-4.096-9.143-9.142-9.143zM315.429 128H196.571c-5.047 0-9.143 4.096-9.143 9.143 0 5.047 4.096 9.143 9.143 9.143h118.857c5.047 0 9.143-4.096 9.143-9.143 0-5.047-4.096-9.143-9.142-9.143zM315.429 155.429H196.571c-5.047 0-9.143 4.096-9.143 9.143 0 5.047 4.096 9.143 9.143 9.143h118.857c5.047 0 9.143-4.096 9.143-9.143 0-5.047-4.096-9.143-9.142-9.143zM256 292.571c-22.683 0-41.143 18.455-41.143 41.143s18.459 41.143 41.143 41.143c22.688 0 41.143-18.455 41.143-41.143S278.688 292.571 256 292.571zm0 64c-12.603 0-22.857-10.254-22.857-22.857s10.254-22.857 22.857-22.857 22.857 10.254 22.857 22.857-10.254 22.857-22.857 22.857z"/><path d="M434.286 73.143H315.429c-5.047 0-9.143 4.096-9.143 9.143v420.571c0 5.047 4.096 9.143 9.143 9.143h118.857c5.047 0 9.143-4.096 9.143-9.143V82.286c0-5.047-4.096-9.143-9.143-9.143zm-9.143 420.571H324.571V91.429h100.571v402.285z"/><path d="M434.286 173.714H315.429c-5.047 0-9.143 4.096-9.143 9.143 0 5.047 4.096 9.143 9.143 9.143h118.857c5.047 0 9.143-4.096 9.143-9.143 0-5.047-4.096-9.143-9.143-9.143zM434.286 201.143H315.429c-5.047 0-9.143 4.096-9.143 9.143 0 5.047 4.096 9.143 9.143 9.143h118.857c5.047 0 9.143-4.096 9.143-9.143 0-5.047-4.096-9.143-9.143-9.143zM434.286 228.571H315.429c-5.047 0-9.143 4.096-9.143 9.143s4.096 9.143 9.143 9.143h118.857c5.047 0 9.143-4.096 9.143-9.143s-4.096-9.143-9.143-9.143zM374.857 365.714c-22.688 0-41.143 18.455-41.143 41.143S352.169 448 374.857 448 416 429.545 416 406.857s-18.455-41.143-41.143-41.143zm0 64c-12.603 0-22.857-10.254-22.857-22.857S362.254 384 374.857 384s22.857 10.254 22.857 22.857-10.253 22.857-22.857 22.857z"/></symbol>

<symbol viewBox="0 0 5 12" id="facebook" xmlns="http://www.w3.org/2000/svg"><path id="df.svg" class="dcls-1" d="M576.333 2977v-1.19a.654.654 0 0 1 .8-.81H578v-2h-1.456c-1.783 0-2.372.98-2.372 2.67v1.33H573v2h1.172v6h2.161v-6h1.467l.2-2h-1.667z" transform="translate(-573 -2973)"/></symbol>

<symbol viewBox="0 0 430.117 430.117" id="instagram" xmlns="http://www.w3.org/2000/svg"><path d="M430.117 261.543V420.56h-92.188V272.193c0-37.271-13.334-62.707-46.703-62.707-25.473 0-40.632 17.142-47.301 33.724-2.432 5.928-3.058 14.179-3.058 22.477V420.56h-92.219s1.242-251.285 0-277.32h92.21v39.309c-.187.294-.43.611-.606.896h.606v-.896c12.251-18.869 34.13-45.824 83.102-45.824 60.673-.001 106.157 39.636 106.157 124.818zM52.183 9.558C20.635 9.558 0 30.251 0 57.463c0 26.619 20.038 47.94 50.959 47.94h.616c32.159 0 52.159-21.317 52.159-47.94-.606-27.212-20-47.905-51.551-47.905zM5.477 420.56h92.184V143.24H5.477v277.32z"/></symbol>

<symbol viewBox="0 0 304.892 304.892" id="load" xmlns="http://www.w3.org/2000/svg"><g><path d="M8.081 154.953h.006l20-.015a7.5 7.5 0 0 0 7.494-7.505c-.018-24.9 7.996-48.543 23.175-68.371 21.439-28.007 54.05-44.07 89.469-44.07 24.887 0 48.485 7.996 68.246 23.123a113.116 113.116 0 0 1 17.625 16.754l-36.932-6.52a7.5 7.5 0 0 0-8.69 6.082l-3.477 19.695a7.5 7.5 0 0 0 6.082 8.689l88.629 15.647a7.505 7.505 0 0 0 5.605-1.241 7.5 7.5 0 0 0 3.085-4.841l15.647-88.63a7.5 7.5 0 0 0-6.082-8.689l-19.695-3.477a7.493 7.493 0 0 0-8.689 6.082l-6.585 37.3a148.189 148.189 0 0 0-25.248-24.642C211.831 10.486 180.884 0 148.249 0 101.827 0 59.078 21.063 30.964 57.787 11.064 83.782.558 114.79.58 147.459a7.502 7.502 0 0 0 7.501 7.494zM302.111 152.131a7.502 7.502 0 0 0-5.3-2.193h-.006l-20 .015a7.5 7.5 0 0 0-7.494 7.505c.018 24.9-7.996 48.543-23.175 68.371-21.44 28.007-54.051 44.07-89.47 44.07-24.886 0-48.484-7.996-68.245-23.123a113.116 113.116 0 0 1-17.625-16.754l36.932 6.52a7.5 7.5 0 0 0 8.689-6.082l3.476-19.695a7.5 7.5 0 0 0-6.082-8.689l-88.629-15.647a7.5 7.5 0 0 0-8.689 6.082L.847 281.141a7.5 7.5 0 0 0 6.082 8.689l19.695 3.477a7.504 7.504 0 0 0 8.69-6.082l6.585-37.3a148.189 148.189 0 0 0 25.248 24.642c25.913 19.838 56.86 30.324 89.496 30.324 46.423 0 89.171-21.063 117.284-57.787 19.9-25.995 30.406-57.003 30.384-89.672a7.501 7.501 0 0 0-2.2-5.301z"/></g></symbol>

<symbol viewBox="0 0 489.791 489.791" id="note" xmlns="http://www.w3.org/2000/svg"><path d="M348.821.574H48.905C21.938.574 0 22.513 0 49.479v390.834c0 26.967 21.938 48.905 48.905 48.905h299.917a7.832 7.832 0 0 0 7.832-7.832v-53.153a7.833 7.833 0 0 0-15.664 0v45.322H48.905c-18.329 0-33.242-14.912-33.242-33.242 0-18.329 14.912-33.242 33.242-33.242h299.917a7.832 7.832 0 0 0 7.832-7.831V8.406a7.833 7.833 0 0 0-7.833-7.832zm-7.832 390.834H70.727V86.188a7.832 7.832 0 1 0-15.663 0v305.22h-6.16c-12.823 0-24.511 4.962-33.242 13.065V49.479c0-18.329 14.912-33.242 33.242-33.242h6.16v33.242a7.831 7.831 0 0 0 7.832 7.831 7.83 7.83 0 0 0 7.831-7.831V16.238h270.262v375.17z"/><path d="M36.71 425.75v27.532a7.832 7.832 0 1 0 15.664 0V425.75a7.832 7.832 0 1 0-15.664 0zM321.29 417.918H72.073c-4.325 0-7.831 3.506-7.831 7.832s3.506 7.832 7.831 7.832H321.29a7.832 7.832 0 1 0 0-15.664zM321.29 445.451H72.073a7.832 7.832 0 0 0 0 15.663H321.29a7.832 7.832 0 1 0 0-15.663zM108.782 194.97h192.725a7.832 7.832 0 0 0 7.832-7.832V95.365a7.833 7.833 0 0 0-7.832-7.832H108.782a7.831 7.831 0 0 0-7.831 7.832v91.773a7.831 7.831 0 0 0 7.831 7.832zm7.832-91.772h177.061v76.11H116.614v-76.11zM108.782 231.68h192.725a7.832 7.832 0 1 0 0-15.663H108.782a7.832 7.832 0 0 0 0 15.663zM108.782 66.488h192.725a7.832 7.832 0 1 0 0-15.663H108.782a7.831 7.831 0 0 0-7.831 7.832 7.83 7.83 0 0 0 7.831 7.831zM481.959 39.732h-23.495V8.406a7.833 7.833 0 0 0-7.832-7.832h-54.821a7.832 7.832 0 0 0-7.832 7.832v219.285a7.832 7.832 0 0 0 7.832 7.831v245.502a7.832 7.832 0 0 0 7.832 7.831h39.158a7.832 7.832 0 0 0 7.832-7.831V235.522a7.832 7.832 0 0 0 7.831-7.831V55.396h15.663v109.643c0 4.325 3.507 7.831 7.832 7.831s7.832-3.506 7.832-7.831V47.563a7.832 7.832 0 0 0-7.832-7.831zm-46.99 433.46h-23.494v-237.67h23.494v237.67zM442.8 219.86h-39.157V55.396H442.8V219.86zm0-180.128h-39.157V16.238H442.8v23.494z"/></symbol>

<symbol viewBox="0 0 232.153 232.153" id="play" xmlns="http://www.w3.org/2000/svg"><path d="M203.791 99.628L49.307 2.294C44.74-.425 39.069.028 34.786.028 17.654.028 17.73 13.255 17.73 16.606v198.94c0 2.833-.075 16.579 17.056 16.579 4.283 0 9.955.451 14.521-2.267l154.483-97.333c12.68-7.545 10.489-16.449 10.489-16.449s2.192-8.904-10.488-16.448z" fill-rule="evenodd" clip-rule="evenodd"/></symbol>

<symbol viewBox="0 0 95.333 95.332" id="quote" xmlns="http://www.w3.org/2000/svg"><path d="M30.512 43.939c-2.348-.676-4.696-1.019-6.98-1.019-3.527 0-6.47.806-8.752 1.793 2.2-8.054 7.485-21.951 18.013-23.516a2.501 2.501 0 0 0 2.04-1.799l2.301-8.23a2.5 2.5 0 0 0-2.068-3.15 17.477 17.477 0 0 0-2.354-.16c-12.637 0-25.152 13.19-30.433 32.076-3.1 11.08-4.009 27.738 3.627 38.223 4.273 5.867 10.507 9 18.529 9.313l.098.002c9.898 0 18.675-6.666 21.345-16.209a22.032 22.032 0 0 0-2.032-16.851c-2.875-5.105-7.61-8.826-13.334-10.473zM92.471 54.413c-2.875-5.106-7.61-8.827-13.334-10.474-2.348-.676-4.696-1.019-6.979-1.019a21.94 21.94 0 0 0-8.753 1.793c2.2-8.054 7.485-21.951 18.014-23.516a2.503 2.503 0 0 0 2.04-1.799l2.301-8.23a2.5 2.5 0 0 0-2.068-3.15 17.455 17.455 0 0 0-2.354-.16c-12.637 0-25.152 13.19-30.434 32.076-3.099 11.08-4.008 27.738 3.629 38.225 4.272 5.866 10.507 9 18.528 9.312l.099.002c9.897 0 18.675-6.666 21.345-16.209a22.045 22.045 0 0 0-2.034-16.851z"/></symbol>

<symbol viewBox="0 0 512 512" id="target" xmlns="http://www.w3.org/2000/svg"><path d="M375.035 225.124c-2.452-6.204-9.469-9.242-15.675-6.792-6.204 2.453-9.244 9.471-6.792 15.675 6.139 15.525 9.25 31.933 9.25 48.77 0 73.14-59.503 132.645-132.645 132.645-73.147 0-132.658-59.505-132.658-132.645s59.511-132.645 132.658-132.645c16.896 0 33.332 3.131 48.852 9.306 6.197 2.469 13.222-.56 15.689-6.757 2.467-6.199-.559-13.223-6.757-15.689-18.374-7.312-37.816-11.019-57.783-11.019-86.468 0-156.817 70.341-156.817 156.803S142.703 439.58 229.173 439.58c86.461 0 156.803-70.341 156.803-156.803 0-19.891-3.682-39.287-10.941-57.653z"/><path d="M449.506 219.607c-1.835-6.414-8.518-10.121-14.936-8.29-6.414 1.836-10.125 8.523-8.29 14.936 5.236 18.302 7.891 37.32 7.891 56.522 0 113.044-91.962 205.014-204.999 205.014-113.044 0-205.013-91.969-205.013-205.014S116.127 77.763 229.172 77.763c19.246 0 38.296 2.667 56.618 7.928 6.413 1.84 13.103-1.864 14.943-8.277 1.841-6.413-1.864-13.103-8.277-14.943-20.489-5.884-41.782-8.868-63.284-8.868C102.806 53.604 0 156.41 0 282.776s102.806 229.173 229.172 229.173c126.358 0 229.158-102.806 229.158-229.173 0-21.452-2.969-42.705-8.824-63.169z"/><path d="M313.278 275.401c-.592-6.645-6.463-11.525-13.105-10.958-6.645.593-11.552 6.461-10.958 13.106.153 1.72.231 3.479.231 5.228 0 33.237-27.04 60.275-60.275 60.275-33.244 0-60.29-27.04-60.29-60.275.002-33.245 27.047-60.29 60.291-60.29 1.857 0 3.675.081 5.406.24 6.649.61 12.525-4.276 13.138-10.92.612-6.643-4.277-12.524-10.92-13.138a83.476 83.476 0 0 0-7.623-.342c-46.565 0-84.449 37.882-84.449 84.448 0 46.558 37.884 84.434 84.449 84.434 46.557 0 84.434-37.876 84.434-84.434a83.286 83.286 0 0 0-.329-7.374z"/><path d="M510.149 81.264a24.094 24.094 0 0 0-22.326-14.918h-42.119V24.228c0-9.81-5.856-18.573-14.918-22.326a24.085 24.085 0 0 0-26.325 5.239l-70.376 70.377c-6.842 6.841-10.609 15.939-10.609 25.618v68.355l-98.17 98.17c-4.717 4.717-4.717 12.366 0 17.084a12.043 12.043 0 0 0 8.541 3.538c3.091 0 6.183-1.18 8.541-3.538l98.171-98.171h68.355c9.679 0 18.778-3.768 25.618-10.608l70.377-70.379a24.08 24.08 0 0 0 5.24-26.323zm-162.514 21.871a11.993 11.993 0 0 1 3.534-8.534l70.376-70.366v49.188l-73.911 73.911v-44.199zm69.815 57.747a12.156 12.156 0 0 1-8.535 3.533h-44.196l73.909-73.909 49.192.006-70.37 70.37z"/></symbol>

<symbol viewBox="0 0 314.41 314.41" id="triangle" xmlns="http://www.w3.org/2000/svg"><path d="M288.318 145.307L39.832 1.841a13.742 13.742 0 0 0-20.611 11.898v286.93a13.74 13.74 0 0 0 6.871 11.898 13.728 13.728 0 0 0 13.74 0l248.487-143.464a13.74 13.74 0 0 0 6.871-11.898 13.743 13.743 0 0 0-6.872-11.898zM46.702 276.868V37.541l207.265 119.664L46.702 276.868z"/></symbol>

<symbol viewBox="0 0 14.969 10.69" id="twitter" xmlns="http://www.w3.org/2000/svg"><path id="lt.svg" class="lcls-1" d="M625.363 2974.17a2.727 2.727 0 0 0-2.106 2.71l.032.46-.54-.05a9.363 9.363 0 0 1-5.14-2.19l-.713-.61-.183.45a2.457 2.457 0 0 0 .669 2.79c.432.39.335.45-.41.22a1.372 1.372 0 0 0-.508-.11 2.968 2.968 0 0 0 .389 1.26 3.255 3.255 0 0 0 1.48 1.21l.529.22-.626.01c-.605 0-.626 0-.561.2a3.109 3.109 0 0 0 2.019 1.55l.669.2-.583.3a6.734 6.734 0 0 1-2.894.69 3.47 3.47 0 0 0-.886.08 9.168 9.168 0 0 0 2.084.83 10.389 10.389 0 0 0 7.084-.7 7.784 7.784 0 0 0 4.331-6.48 1.058 1.058 0 0 1 .637-1.01 7 7 0 0 0 .756-.72c.108-.18.1-.18-.454-.02-.917.28-1.047.24-.593-.18a2.708 2.708 0 0 0 .734-1.01.622.622 0 0 0-.346.11 8.011 8.011 0 0 1-.95.32l-.583.16-.529-.31a4.943 4.943 0 0 0-.918-.42 4.289 4.289 0 0 0-1.89.04z" transform="translate(-616 -2974.03)"/></symbol>

<symbol viewBox="0 0 97.75 97.75" id="youtube" xmlns="http://www.w3.org/2000/svg"><path d="M39.969 59.587L61.91 48.211c-7.359-3.84-14.627-7.63-21.941-11.447v22.823z"/><path d="M48.875 0C21.883 0 0 21.882 0 48.875S21.883 97.75 48.875 97.75 97.75 75.868 97.75 48.875 75.867 0 48.875 0zm33.301 65.189c-.846 3.67-3.848 6.377-7.461 6.78-8.557.957-17.217.962-25.842.957-8.625.005-17.287 0-25.846-.957-3.613-.403-6.613-3.11-7.457-6.78-1.203-5.228-1.203-10.933-1.203-16.314s.014-11.088 1.217-16.314c.844-3.67 3.844-6.378 7.457-6.782 8.559-.956 17.221-.961 25.846-.956 8.623-.005 17.285 0 25.841.956 3.615.404 6.617 3.111 7.461 6.782 1.203 5.227 1.193 10.933 1.193 16.314s-.003 11.087-1.206 16.314z"/></symbol></svg>